<svg xmlns="http://www.w3.org/2000/svg" xmlns:xlink="http://www.w3.org/1999/xlink" version="1.1" x="0px" y="0px" viewBox="0 0 100 100" enable-background="new 0 0 100 100" xml:space="preserve"><path d="M50,13.5c-20.126,0-36.5,16.374-36.5,36.5S29.874,86.5,50,86.5S86.5,70.126,86.5,50S70.126,13.5,50,13.5z M20.5,50  c0-6.875,2.37-13.202,6.327-18.224l41.396,41.396C63.202,77.13,56.875,79.5,50,79.5C33.733,79.5,20.5,66.267,20.5,50z   M73.173,68.224L31.776,26.827C36.798,22.87,43.125,20.5,50,20.5c16.267,0,29.5,13.233,29.5,29.5  C79.5,56.875,77.13,63.202,73.173,68.224z"/></svg>
